<svg width="14" height="12" viewBox="0 0 14 12" fill="none" xmlns="http://www.w3.org/2000/svg">
<path fill-rule="evenodd" clip-rule="evenodd" d="M0 1C0 0.73478 0.10536 0.48043 0.29289 0.29289C0.48043 0.10536 0.73478 0 1 0H13C13.2652 0 13.5196 0.10536 13.7071 0.29289C13.8946 0.48043 14 0.73478 14 1C14 1.26522 13.8946 1.51957 13.7071 1.70711C13.5196 1.89464 13.2652 2 13 2H1C0.73478 2 0.48043 1.89464 0.29289 1.70711C0.10536 1.51957 0 1.26522 0 1ZM0 6C0 5.73478 0.10536 5.48043 0.29289 5.29289C0.48043 5.10536 0.73478 5 1 5H7C7.2652 5 7.5196 5.10536 7.7071 5.29289C7.8946 5.48043 8 5.73478 8 6C8 6.2652 7.8946 6.5196 7.7071 6.7071C7.5196 6.8946 7.2652 7 7 7H1C0.73478 7 0.48043 6.8946 0.29289 6.7071C0.10536 6.5196 0 6.2652 0 6ZM0 11C0 10.7348 0.10536 10.4804 0.29289 10.2929C0.48043 10.1054 0.73478 10 1 10H13C13.2652 10 13.5196 10.1054 13.7071 10.2929C13.8946 10.4804 14 10.7348 14 11C14 11.2652 13.8946 11.5196 13.7071 11.7071C13.5196 11.8946 13.2652 12 13 12H1C0.73478 12 0.48043 11.8946 0.29289 11.7071C0.10536 11.5196 0 11.2652 0 11Z" fill="#4D4D4D"/>
</svg>
