<svg width="12" height="12" viewBox="0 0 12 12" fill="none" xmlns="http://www.w3.org/2000/svg">
<path d="M2.76975 9.75999C2.46475 9.75999 2.17975 9.65499 1.97475 9.45999C1.71475 9.21499 1.58975 8.84499 1.63475 8.44499L1.81975 6.82499C1.85475 6.51999 2.03975 6.11499 2.25475 5.89499L6.35975 1.54999C7.38475 0.464994 8.45475 0.434994 9.53975 1.45999C10.6247 2.48499 10.6547 3.55499 9.62975 4.63999L5.52475 8.98499C5.31475 9.20999 4.92475 9.41999 4.61975 9.46999L3.00975 9.74499C2.92475 9.74999 2.84975 9.75999 2.76975 9.75999ZM7.96475 1.45499C7.57975 1.45499 7.24475 1.69499 6.90475 2.05499L2.79975 6.40499C2.69975 6.50999 2.58475 6.75999 2.56475 6.90499L2.37975 8.52499C2.35975 8.68999 2.39975 8.82499 2.48975 8.90999C2.57975 8.99499 2.71475 9.02499 2.87975 8.99999L4.48975 8.72499C4.63475 8.69999 4.87475 8.56999 4.97475 8.46499L9.07975 4.11999C9.69975 3.45999 9.92475 2.84999 9.01975 1.99999C8.61975 1.61499 8.27475 1.45499 7.96475 1.45499Z" fill="#667085"/>
<path d="M8.66973 5.475C8.65973 5.475 8.64473 5.475 8.63473 5.475C7.07473 5.32 5.81973 4.135 5.57973 2.585C5.54973 2.38 5.68973 2.19 5.89473 2.155C6.09973 2.125 6.28973 2.265 6.32473 2.47C6.51473 3.68 7.49473 4.61 8.71473 4.73C8.91973 4.75 9.06973 4.935 9.04973 5.14C9.02473 5.33 8.85973 5.475 8.66973 5.475Z" fill="#667085"/>
<path d="M10.4998 11.375H1.49976C1.29476 11.375 1.12476 11.205 1.12476 11C1.12476 10.795 1.29476 10.625 1.49976 10.625H10.4998C10.7048 10.625 10.8748 10.795 10.8748 11C10.8748 11.205 10.7048 11.375 10.4998 11.375Z" fill="#667085"/>
</svg>
