<svg width="21" height="21" viewBox="0 0 21 21" fill="none" xmlns="http://www.w3.org/2000/svg">
<path d="M15.4081 15.2926L6.14141 15.2926C2.82474 15.2926 1.81641 14.2843 1.81641 10.9676L1.81641 5.68425C1.81641 2.36759 2.82474 1.35925 6.14141 1.35925L15.3997 1.35925C18.7164 1.35925 19.7247 2.36759 19.7247 5.68425L19.7247 10.9593C19.7331 14.2843 18.7247 15.2926 15.4081 15.2926ZM6.14141 2.60925C3.52474 2.60925 3.06641 3.06759 3.06641 5.68425L3.06641 10.9593C3.06641 13.5759 3.52474 14.0343 6.14141 14.0343L15.3997 14.0343C18.0164 14.0343 18.4747 13.5759 18.4747 10.9593L18.4747 5.68425C18.4747 3.06759 18.0164 2.60925 15.3997 2.60925L6.14141 2.60925V2.60925Z" fill="#292D32"/>
<path d="M10.7747 19.2759C10.433 19.2759 10.1497 18.9926 10.1497 18.6509L10.1497 14.6676C10.1497 14.3259 10.433 14.0426 10.7747 14.0426C11.1163 14.0426 11.3997 14.3259 11.3997 14.6676L11.3997 18.6509C11.3997 18.9926 11.1163 19.2759 10.7747 19.2759Z" fill="#292D32"/>
<path d="M19.1081 11.7759L2.44141 11.7759C2.09974 11.7759 1.81641 11.4926 1.81641 11.1509C1.81641 10.8093 2.09974 10.5259 2.44141 10.5259L19.1081 10.5259C19.4497 10.5259 19.7331 10.8093 19.7331 11.1509C19.7331 11.4926 19.4497 11.7759 19.1081 11.7759Z" fill="#292D32"/>
<path d="M14.5247 19.2759L7.02466 19.2759C6.68299 19.2759 6.39966 18.9926 6.39966 18.6509C6.39966 18.3093 6.68299 18.0259 7.02466 18.0259L14.5247 18.0259C14.8663 18.0259 15.1497 18.3093 15.1497 18.6509C15.1497 18.9926 14.8663 19.2759 14.5247 19.2759Z" fill="#292D32"/>
</svg>
