<svg width="18" height="18" viewBox="0 0 18 18" fill="none" xmlns="http://www.w3.org/2000/svg">
<path d="M8.04582 1C4.16072 1 0.999756 4.16097 0.999756 8.04606C0.999756 11.9314 4.16072 15.0921 8.04582 15.0921C11.9311 15.0921 15.0919 11.9314 15.0919 8.04606C15.0919 4.16097 11.9311 1 8.04582 1ZM8.04582 13.7913C4.87791 13.7913 2.30057 11.214 2.30057 8.04609C2.30057 4.87819 4.87791 2.30081 8.04582 2.30081C11.2137 2.30081 13.7911 4.87816 13.7911 8.04606C13.7911 11.214 11.2137 13.7913 8.04582 13.7913Z" fill="#7D879C"/>
<path d="M16.8092 15.8897L13.0802 12.1607C12.8261 11.9066 12.4146 11.9066 12.1605 12.1607C11.9064 12.4146 11.9064 12.8265 12.1605 13.0804L15.8895 16.8094C15.9498 16.8699 16.0215 16.9179 16.1004 16.9506C16.1794 16.9833 16.264 17.0001 16.3494 16.9999C16.4348 17 16.5194 16.9832 16.5983 16.9505C16.6772 16.9178 16.7489 16.8699 16.8092 16.8094C17.0633 16.5555 17.0633 16.1436 16.8092 15.8897Z" fill="#7D879C"/>
</svg>
