<svg width="19" height="19" viewBox="0 0 19 19" fill="none" xmlns="http://www.w3.org/2000/svg">
<path d="M6.74435 5.43037L12.1443 5.4194C14.6943 5.41422 14.9518 6.6062 15.1272 8.06085L15.8136 13.6845C16.0349 15.529 15.4679 17.0377 12.843 17.043L6.10046 17.0567C3.46797 17.0621 2.89491 15.5557 3.11616 13.7103L3.77974 8.0839C3.94178 6.62857 4.19435 5.43555 6.74435 5.43037Z" stroke="#667085" stroke-width="1.5" stroke-linecap="round" stroke-linejoin="round"/>
<path d="M6.44664 6.55599L6.44131 3.931C6.43902 2.806 7.1875 2.05448 8.3125 2.05219L10.5625 2.04762C11.6875 2.04533 12.439 2.79381 12.4413 3.91881L12.4466 6.5438" stroke="#667085" stroke-width="1.5" stroke-linecap="round" stroke-linejoin="round"/>
<path d="M15.7679 13.3098L6.46045 13.3287" stroke="#667085" stroke-width="1.5" stroke-linecap="round" stroke-linejoin="round"/>
</svg>
