<svg width="20" height="20" viewBox="0 0 20 20" fill="none" xmlns="http://www.w3.org/2000/svg">
<path d="M13.3332 7.29166C12.9915 7.29166 12.7082 7.00832 12.7082 6.66666V3.74999C12.7082 2.84999 12.1498 2.29166 11.2498 2.29166H8.74984C7.84984 2.29166 7.2915 2.84999 7.2915 3.74999V6.66666C7.2915 7.00832 7.00817 7.29166 6.6665 7.29166C6.32484 7.29166 6.0415 7.00832 6.0415 6.66666V3.74999C6.0415 2.15832 7.15817 1.04166 8.74984 1.04166H11.2498C12.8415 1.04166 13.9582 2.15832 13.9582 3.74999V6.66666C13.9582 7.00832 13.6748 7.29166 13.3332 7.29166Z" fill="#1D2939"/>
<path d="M6.66637 14.8167C6.32471 14.8167 6.04137 14.5333 6.04137 14.1917C6.04137 13.8417 6.32471 13.5667 6.66637 13.5667H16.4664C16.7164 13.5667 16.908 13.35 16.883 13.1L16.3164 8.35832C16.1164 6.74166 15.833 5.41666 12.9997 5.41666H6.99971C4.16637 5.41666 3.88304 6.74166 3.69137 8.35832L2.94137 14.6083C2.69971 16.6583 3.33304 18.3333 6.25804 18.3333H13.7414C16.3747 18.3333 17.1497 16.975 17.108 15.2083C17.0997 14.9833 16.9164 14.8167 16.6914 14.8167H6.66637Z" fill="#1D2939"/>
</svg>
