<svg width="18" height="18" viewBox="0 0 18 18" fill="none" xmlns="http://www.w3.org/2000/svg">
<path d="M15.7498 5.04751C15.7348 5.04751 15.7123 5.04751 15.6898 5.04751C11.7223 4.65001 7.76225 4.50001 3.83975 4.89751L2.30975 5.04751C1.99475 5.07751 1.71725 4.85251 1.68725 4.53751C1.65725 4.22251 1.88225 3.95251 2.18975 3.92251L3.71975 3.77251C7.70975 3.36751 11.7523 3.52501 15.8023 3.92251C16.1098 3.95251 16.3348 4.23001 16.3048 4.53751C16.2823 4.83001 16.0348 5.04751 15.7498 5.04751Z" fill="#475467"/>
<path d="M6.37482 4.29C6.34482 4.29 6.31482 4.29 6.27732 4.2825C5.97732 4.23 5.76732 3.9375 5.81982 3.6375L5.98482 2.655C6.10482 1.935 6.26982 0.9375 8.01732 0.9375H9.98232C11.7373 0.9375 11.9023 1.9725 12.0148 2.6625L12.1798 3.6375C12.2323 3.945 12.0223 4.2375 11.7223 4.2825C11.4148 4.335 11.1223 4.125 11.0773 3.825L10.9123 2.85C10.8073 2.1975 10.7848 2.07 9.98982 2.07H8.02482C7.22982 2.07 7.21482 2.175 7.10232 2.8425L6.92982 3.8175C6.88482 4.095 6.64482 4.29 6.37482 4.29Z" fill="#475467"/>
<path d="M11.4073 17.0625H6.5923C3.9748 17.0625 3.8698 15.615 3.7873 14.445L3.2998 6.8925C3.2773 6.585 3.5173 6.315 3.8248 6.2925C4.1398 6.2775 4.4023 6.51 4.4248 6.8175L4.9123 14.37C4.9948 15.51 5.0248 15.9375 6.5923 15.9375H11.4073C12.9823 15.9375 13.0123 15.51 13.0873 14.37L13.5748 6.8175C13.5973 6.51 13.8673 6.2775 14.1748 6.2925C14.4823 6.315 14.7223 6.5775 14.6998 6.8925L14.2123 14.445C14.1298 15.615 14.0248 17.0625 11.4073 17.0625Z" fill="#475467"/>
<path d="M10.2448 12.9375H7.74731C7.43981 12.9375 7.18481 12.6825 7.18481 12.375C7.18481 12.0675 7.43981 11.8125 7.74731 11.8125H10.2448C10.5523 11.8125 10.8073 12.0675 10.8073 12.375C10.8073 12.6825 10.5523 12.9375 10.2448 12.9375Z" fill="#475467"/>
<path d="M10.8748 9.9375H7.12476C6.81726 9.9375 6.56226 9.6825 6.56226 9.375C6.56226 9.0675 6.81726 8.8125 7.12476 8.8125H10.8748C11.1823 8.8125 11.4373 9.0675 11.4373 9.375C11.4373 9.6825 11.1823 9.9375 10.8748 9.9375Z" fill="#475467"/>
</svg>
