<svg width="49" height="49" viewBox="0 0 49 49" fill="none" xmlns="http://www.w3.org/2000/svg">
<path d="M24.5 49C38.031 49 49 38.031 49 24.5C49 10.969 38.031 0 24.5 0C10.969 0 0 10.969 0 24.5C0 38.031 10.969 49 24.5 49Z" fill="url(#paint0_linear_98_1995)"/>
<path d="M25.2268 6C15.1639 6 7.00416 14.1556 7 24.2206C7 24.2206 7 24.2268 7 24.231C7 28.3035 9.78717 31.7251 13.554 32.6965C13.9346 32.7963 14.3257 32.8691 14.7271 32.9128C15.0578 32.9523 15.3969 32.9731 15.74 32.9731C20.5677 32.9731 24.4822 29.0607 24.4822 24.231C24.4822 23.8857 24.4614 23.5487 24.4219 23.218C23.9206 18.8667 20.2266 15.4868 15.74 15.4868L15.6756 19.7008C18.1736 19.7008 19.8584 21.7288 19.8584 24.231C19.8584 26.729 17.8304 28.757 15.3324 28.757C12.9092 28.757 10.9312 26.8559 10.8126 24.4618C10.8084 24.3849 10.8063 24.31 10.8063 24.2289C10.8063 24.1498 10.8105 24.0729 10.8126 23.998C10.8521 21.138 11.734 18.4757 13.2108 16.2522L13.5956 15.7592H13.5997C16.2184 12.1505 20.4678 9.80843 25.2663 9.80843C28.7752 9.80843 31.9888 11.0606 34.4868 13.1468L34.4681 13.1655C37.6318 15.8071 39.6431 19.7819 39.6431 24.2289C39.6431 32.191 33.1889 38.6452 25.2226 38.6452C20.7798 38.6452 16.8071 36.6338 14.1593 33.4764L11.4345 36.2012C14.777 40.0346 19.6982 42.4578 25.1831 42.4578C35.2502 42.4578 43.4099 34.2959 43.4099 24.231C43.4099 18.7544 40.9972 13.8457 37.1763 10.5011L37.197 10.4803C33.9939 7.6931 29.8069 6 25.2247 6H25.2268Z" fill="white"/>
<defs>
<linearGradient id="paint0_linear_98_1995" x1="-0.345276" y1="24.5" x2="48.6547" y2="24.5" gradientUnits="userSpaceOnUse">
<stop offset="0.3" stop-color="#87C65B"/>
<stop offset="0.54" stop-color="#5BB578"/>
<stop offset="0.96" stop-color="#0797B1"/>
</linearGradient>
</defs>
</svg>
