<svg width="30" height="30" viewBox="0 0 30 30" fill="none" xmlns="http://www.w3.org/2000/svg">
<path d="M18.0373 23.525C17.7998 23.525 17.5623 23.4375 17.3748 23.25C17.0123 22.8875 17.0123 22.2875 17.3748 21.925L24.2998 15L17.3748 8.07499C17.0123 7.71249 17.0123 7.11249 17.3748 6.74999C17.7373 6.38749 18.3373 6.38749 18.6998 6.74999L26.2873 14.3375C26.6498 14.7 26.6498 15.3 26.2873 15.6625L18.6998 23.25C18.5123 23.4375 18.2748 23.525 18.0373 23.525Z" fill="#292D32"/>
<path d="M25.4123 15.9375H4.37476C3.86226 15.9375 3.43726 15.5125 3.43726 15C3.43726 14.4875 3.86226 14.0625 4.37476 14.0625H25.4123C25.9248 14.0625 26.3498 14.4875 26.3498 15C26.3498 15.5125 25.9248 15.9375 25.4123 15.9375Z" fill="#292D32"/>
</svg>
