<svg width="20" height="20" viewBox="0 0 20 20" fill="none" xmlns="http://www.w3.org/2000/svg">
<path d="M1.6665 8.12499C1.32484 8.12499 1.0415 7.84166 1.0415 7.49999V5.41666C1.0415 2.99999 3.00817 1.04166 5.4165 1.04166H7.49984C7.8415 1.04166 8.12484 1.32499 8.12484 1.66666C8.12484 2.00832 7.8415 2.29166 7.49984 2.29166H5.4165C3.6915 2.29166 2.2915 3.69166 2.2915 5.41666V7.49999C2.2915 7.84166 2.00817 8.12499 1.6665 8.12499Z" fill="#475467"/>
<path d="M18.3331 8.12499C17.9914 8.12499 17.7081 7.84166 17.7081 7.49999V5.41666C17.7081 3.69166 16.3081 2.29166 14.5831 2.29166H12.4998C12.1581 2.29166 11.8748 2.00832 11.8748 1.66666C11.8748 1.32499 12.1581 1.04166 12.4998 1.04166H14.5831C16.9914 1.04166 18.9581 2.99999 18.9581 5.41666V7.49999C18.9581 7.84166 18.6748 8.12499 18.3331 8.12499Z" fill="#475467"/>
<path d="M14.583 18.9583H13.333C12.9913 18.9583 12.708 18.675 12.708 18.3333C12.708 17.9917 12.9913 17.7083 13.333 17.7083H14.583C16.308 17.7083 17.708 16.3083 17.708 14.5833V13.3333C17.708 12.9917 17.9913 12.7083 18.333 12.7083C18.6747 12.7083 18.958 12.9917 18.958 13.3333V14.5833C18.958 17 16.9913 18.9583 14.583 18.9583Z" fill="#475467"/>
<path d="M7.49984 18.9583H5.4165C3.00817 18.9583 1.0415 17 1.0415 14.5833V12.5C1.0415 12.1583 1.32484 11.875 1.6665 11.875C2.00817 11.875 2.2915 12.1583 2.2915 12.5V14.5833C2.2915 16.3083 3.6915 17.7083 5.4165 17.7083H7.49984C7.8415 17.7083 8.12484 17.9917 8.12484 18.3333C8.12484 18.675 7.8415 18.9583 7.49984 18.9583Z" fill="#475467"/>
<path d="M11.6663 15.2083H8.33301C6.31634 15.2083 5.20801 14.1 5.20801 12.0833V7.91666C5.20801 5.89999 6.31634 4.79166 8.33301 4.79166H11.6663C13.683 4.79166 14.7913 5.89999 14.7913 7.91666V12.0833C14.7913 14.1 13.683 15.2083 11.6663 15.2083ZM8.33301 6.04166C7.01634 6.04166 6.45801 6.59999 6.45801 7.91666V12.0833C6.45801 13.4 7.01634 13.9583 8.33301 13.9583H11.6663C12.983 13.9583 13.5413 13.4 13.5413 12.0833V7.91666C13.5413 6.59999 12.983 6.04166 11.6663 6.04166H8.33301Z" fill="#475467"/>
<path d="M15.8332 10.625H4.1665C3.82484 10.625 3.5415 10.3417 3.5415 10C3.5415 9.65833 3.82484 9.375 4.1665 9.375H15.8332C16.1748 9.375 16.4582 9.65833 16.4582 10C16.4582 10.3417 16.1748 10.625 15.8332 10.625Z" fill="#475467"/>
</svg>
