<svg width="12" height="12" viewBox="0 0 12 12" fill="none" xmlns="http://www.w3.org/2000/svg">
<path d="M10.4998 3.365C10.4898 3.365 10.4748 3.365 10.4598 3.365C7.81484 3.1 5.17484 3 2.55984 3.265L1.53984 3.365C1.32984 3.385 1.14484 3.235 1.12484 3.025C1.10484 2.815 1.25484 2.635 1.45984 2.615L2.47984 2.515C5.13984 2.245 7.83484 2.35 10.5348 2.615C10.7398 2.635 10.8898 2.82 10.8698 3.025C10.8548 3.22 10.6898 3.365 10.4998 3.365Z" fill="white"/>
<path d="M4.24964 2.86C4.22964 2.86 4.20964 2.86 4.18464 2.855C3.98464 2.82 3.84464 2.625 3.87964 2.425L3.98964 1.77C4.06964 1.29 4.17964 0.625 5.34464 0.625H6.65464C7.82464 0.625 7.93464 1.315 8.00964 1.775L8.11964 2.425C8.15464 2.63 8.01464 2.825 7.81464 2.855C7.60964 2.89 7.41464 2.75 7.38464 2.55L7.27464 1.9C7.20464 1.465 7.18964 1.38 6.65964 1.38H5.34964C4.81964 1.38 4.80964 1.45 4.73464 1.895L4.61964 2.545C4.58964 2.73 4.42964 2.86 4.24964 2.86Z" fill="white"/>
<path d="M7.60471 11.375H4.39471C2.64971 11.375 2.57971 10.41 2.52471 9.63001L2.19971 4.59501C2.18471 4.39001 2.34471 4.21001 2.54971 4.19501C2.75971 4.18501 2.93471 4.34001 2.94971 4.54501L3.27471 9.58001C3.32971 10.34 3.34971 10.625 4.39471 10.625H7.60471C8.65471 10.625 8.67471 10.34 8.72471 9.58001L9.04971 4.54501C9.06471 4.34001 9.24471 4.18501 9.44971 4.19501C9.65471 4.21001 9.81471 4.38501 9.79971 4.59501L9.47471 9.63001C9.41971 10.41 9.34971 11.375 7.60471 11.375Z" fill="white"/>
<path d="M6.82979 8.625H5.16479C4.95979 8.625 4.78979 8.455 4.78979 8.25C4.78979 8.045 4.95979 7.875 5.16479 7.875H6.82979C7.03479 7.875 7.20479 8.045 7.20479 8.25C7.20479 8.455 7.03479 8.625 6.82979 8.625Z" fill="white"/>
<path d="M7.24976 6.625H4.74976C4.54476 6.625 4.37476 6.455 4.37476 6.25C4.37476 6.045 4.54476 5.875 4.74976 5.875H7.24976C7.45476 5.875 7.62476 6.045 7.62476 6.25C7.62476 6.455 7.45476 6.625 7.24976 6.625Z" fill="white"/>
</svg>
