<svg width="104" height="49" viewBox="0 0 104 49" fill="none" xmlns="http://www.w3.org/2000/svg">
<path d="M79.5 49C93.031 49 104 38.031 104 24.5C104 10.969 93.031 0 79.5 0C65.969 0 55 10.969 55 24.5C55 38.031 65.969 49 79.5 49Z" fill="url(#paint0_linear_1_16189)"/>
<path d="M79.5416 6.27112C69.4787 6.27112 61.319 14.4267 61.3148 24.4917C61.3148 24.4917 61.3148 24.4979 61.3148 24.5021C61.3148 28.5747 64.102 31.9962 67.8688 32.9676C68.2495 33.0674 68.6405 33.1402 69.0419 33.1839C69.3726 33.2234 69.7117 33.2442 70.0549 33.2442C74.8825 33.2442 78.797 29.3318 78.797 24.5021C78.797 24.1568 78.7762 23.8198 78.7367 23.4891C78.2354 19.1378 74.5414 15.7579 70.0549 15.7579L69.9904 19.9719C72.4884 19.9719 74.1732 21.9999 74.1732 24.5021C74.1732 27.0001 72.1452 29.0281 69.6472 29.0281C67.224 29.0281 65.246 27.127 65.1274 24.733C65.1233 24.656 65.1212 24.5811 65.1212 24.5C65.1212 24.421 65.1253 24.344 65.1274 24.2691C65.1669 21.4092 66.0488 18.7468 67.5256 16.5233L67.9104 16.0303H67.9146C70.5333 12.4216 74.7826 10.0795 79.5811 10.0795C83.0901 10.0795 86.3036 11.3317 88.8017 13.4179L88.7829 13.4366C91.9466 16.0782 93.9579 20.053 93.9579 24.5C93.9579 32.4621 87.5038 38.9163 79.5375 38.9163C75.0946 38.9163 71.1219 36.905 68.4741 33.7476L65.7493 36.4723C69.0918 40.3057 74.013 42.7289 79.4979 42.7289C89.565 42.7289 97.7247 34.5671 97.7247 24.5021C97.7247 19.0255 95.312 14.1168 91.4911 10.7722L91.5119 10.7514C88.3087 7.96422 84.1217 6.27112 79.5395 6.27112H79.5416Z" fill="white"/>
<path d="M2.84465 34.617V29.259H2.24561C1.28883 29.259 0.858276 28.8284 0.858276 28.063V27.8716C0.858276 27.0833 1.28883 26.6278 2.24561 26.6278H2.84465V25.1448C2.84465 24.0445 3.39584 23.5182 4.35263 23.5182H4.66462C5.57357 23.5182 6.14765 23.8781 6.14765 25.1448V26.6278H8.20474C9.16153 26.6278 9.5692 27.0355 9.5692 27.8238V28.0152C9.5692 28.8284 9.13864 29.259 8.15689 29.259H6.0998V34.2343C6.0998 35.3824 6.45964 35.9565 7.39147 35.9565C8.0841 35.9565 8.53961 35.6216 8.87449 35.1661C8.99512 35.1183 9.71064 35.5967 9.71064 36.4827C9.71064 36.9611 9.51928 37.4145 9.13657 37.7744C8.61033 38.3006 7.74922 38.6355 6.62395 38.6355C4.04063 38.6355 2.84465 37.2481 2.84465 34.617Z" fill="#1E1E1E"/>
<path d="M10.6176 36.0043C10.6176 35.1432 11.5515 34.617 11.6471 34.6648C12.4375 35.5509 13.777 36.2435 15.4993 36.2435C16.8159 36.2435 17.5563 35.788 17.5563 35.0475C17.5563 34.1386 16.6245 33.9701 15.0687 33.6352C13.465 33.2775 10.9545 32.7741 10.9545 30.143C10.9545 27.8695 12.7953 26.3636 15.8341 26.3636C18.2032 26.3636 19.6613 27.0334 20.2603 27.9423C20.4517 28.2294 20.5473 28.5414 20.5473 28.8763C20.5473 29.7602 19.5178 30.3593 19.4699 30.2886C18.6795 29.3796 17.3879 28.7099 16.0484 28.7099C14.7089 28.7099 14.0391 29.1882 14.0391 29.9308C14.0391 30.769 14.973 30.9354 16.5268 31.2932C18.2011 31.653 20.8323 32.1793 20.8323 34.8104C20.8323 37.1545 18.9666 38.5668 15.6885 38.5668C13.8228 38.5668 12.5062 38.2091 11.6451 37.6829C10.9753 37.2273 10.6155 36.6533 10.6155 36.0085L10.6176 36.0043Z" fill="#1E1E1E"/>
<path d="M28.4617 26.3636C32.1453 26.3636 34.6579 28.8763 34.6579 32.512C34.6579 36.1478 32.1224 38.6355 28.4138 38.6355C24.7052 38.6355 22.1947 36.1478 22.1947 32.4871C22.1947 28.8263 24.7302 26.3636 28.4617 26.3636ZM28.4138 28.9948C26.5231 28.9948 25.1358 30.455 25.1358 32.4871C25.1358 34.5192 26.5231 35.9794 28.4138 35.9794C30.3045 35.9794 31.6919 34.4963 31.6919 32.51C31.6919 30.5236 30.3274 28.9927 28.4138 28.9927V28.9948Z" fill="#1E1E1E"/>
<path d="M48.5312 26.8899V41.3374C48.5312 42.5812 47.9093 42.9639 47.0004 42.9639H46.6405C45.7794 42.9639 45.1575 42.5562 45.1575 41.3374V36.5056C44.417 37.7494 43.0755 38.6355 41.3782 38.6355C38.2208 38.6355 35.9952 36.1478 35.9952 32.4871C35.9952 28.8263 38.1958 26.3636 41.426 26.3636C43.1961 26.3636 44.6791 27.2248 45.2782 28.3979V28.35C45.5174 26.8192 46.4741 26.5092 47.2645 26.5092C47.9343 26.5092 48.5333 26.7963 48.5333 26.892L48.5312 26.8899ZM45.1575 30.9562C44.6542 29.8081 43.6974 29.0655 42.2622 29.0655C40.4193 29.0655 39.2005 30.405 39.2005 32.51C39.2005 34.6149 40.4443 35.9315 42.2144 35.9315C43.818 35.9315 45.1575 34.7834 45.1575 33.1319V30.9562Z" fill="#1E1E1E"/>
<path d="M10.1952 15.5395C10.4635 15.5395 10.7339 15.6476 10.8941 15.7912C10.4989 16.3299 10.1765 17.1723 10.1765 18.3204C10.1765 20.1321 11.4869 20.9744 13.908 20.9744C16.795 20.9744 17.9972 19.9885 18.2842 18.5534C17.8724 18.7676 17.2442 18.9298 16.5433 18.9298C14.3718 18.9298 12.8659 17.4593 12.8659 15.4147C12.8659 13.3701 14.3198 11.8267 16.275 11.8267C18.6607 11.8267 20.1666 13.9254 20.1666 17.4593C20.1666 21.7108 18.1761 23.4871 13.8518 23.4871C10.0122 23.4871 8.11108 21.8896 8.11108 18.9298C8.11108 16.7771 9.24051 15.5395 10.1911 15.5395H10.1952ZM15.9713 9.96099C15.9713 10.7139 15.5407 11.1799 14.7691 11.1799C14.4633 11.1799 14.1056 11.0904 13.8185 10.9469C13.675 10.6411 13.6022 10.3187 13.6022 10.0317C13.6022 9.26004 14.1056 8.84821 14.8211 8.84821C15.1268 8.84821 15.4659 8.93764 15.7716 9.06244C15.8964 9.3682 15.9692 9.69059 15.9692 9.95891L15.9713 9.96099ZM16.4913 16.7063C17.1548 16.7063 17.8017 16.5441 18.1594 16.3486C18.07 14.8593 17.2983 13.9629 16.1855 13.9629C15.2537 13.9629 14.6068 14.591 14.6068 15.3793C14.6068 16.1676 15.3057 16.7063 16.4913 16.7063ZM18.9498 9.96099C18.9498 10.7139 18.538 11.1799 17.7663 11.1799C17.4439 11.1799 17.1028 11.0904 16.8158 10.9469C16.6535 10.6411 16.5828 10.3187 16.5828 10.0317C16.5828 9.26004 17.1028 8.84821 17.8204 8.84821C18.1262 8.84821 18.4652 8.93764 18.7522 9.06244C18.8957 9.3682 18.9498 9.69059 18.9498 9.95891V9.96099Z" fill="#1E1E1E"/>
<path d="M23.9917 20.6874C25.4976 20.6874 26.6104 19.9511 26.9702 18.9298H26.055C23.401 18.9298 21.7495 17.5487 21.7495 15.3772C21.7495 13.368 23.1847 11.8434 25.0858 11.8434C27.2385 11.8434 28.655 13.5302 28.9067 16.5254H29.6243C29.9654 16.5254 30.1276 16.9559 30.1276 17.7442C30.1276 18.5325 29.9654 19.0546 29.6243 19.0546H28.8526C28.422 21.5298 26.8246 23.1813 24.1352 23.1813C22.3048 23.1813 21.3376 22.3015 21.3376 21.3155C21.3376 20.7768 21.66 20.3463 22.1447 20.132C22.4671 20.4544 23.1847 20.6874 23.9917 20.6874ZM27.0222 16.6169C26.9328 14.876 26.1798 13.9254 25.0483 13.9254C24.1165 13.9254 23.4696 14.4808 23.4696 15.2878C23.4696 16.0948 24.025 16.6148 25.587 16.6148H27.0222V16.6169Z" fill="#1E1E1E"/>
<path d="M43.7951 17.7651C43.7951 18.5367 43.6162 19.0567 43.3291 19.0567C42.0375 19.0567 41.2304 18.6449 40.7458 17.5862C40.4234 18.518 39.7058 19.0567 38.7178 19.0567C37.6238 19.0567 36.8521 18.5367 36.5838 17.6569C36.2427 18.518 35.4544 19.0567 34.3957 19.0567C33.4098 19.0567 32.584 18.5367 32.3157 17.6569C31.9039 18.5721 31.0053 19.0567 29.6429 19.0567C29.3205 19.0567 29.177 18.5721 29.177 17.7651C29.177 17.0287 29.3392 16.5275 29.6429 16.5275C30.7183 16.5275 31.0968 16.1323 31.0968 15.344C31.0968 14.9675 31.0615 14.5557 31.0615 14.1605C31.0615 13.551 31.5107 13.1018 32.2637 13.1018C32.6048 13.1018 32.9459 13.2265 33.0894 13.3347V14.4641C33.0894 15.97 33.52 16.5275 34.3998 16.5275C35.0987 16.5275 35.4044 16.1323 35.4044 15.3793C35.4044 14.9675 35.3857 14.5723 35.3857 14.1417C35.3857 13.5323 35.8704 13.1184 36.5692 13.1184C36.9291 13.1184 37.2515 13.2265 37.395 13.3326V14.4808C37.395 16.0054 37.8068 16.5254 38.6138 16.5254C39.242 16.5254 39.5457 16.1676 39.5457 15.2691C39.5457 14.6056 39.5103 14.2291 39.4916 13.4761C39.4916 12.8126 39.9762 12.3821 40.7105 12.3821C41.0516 12.3821 41.374 12.5069 41.5175 12.615V14.3185C41.5175 15.968 42.0728 16.5254 43.3291 16.5254C43.6162 16.5254 43.7951 16.9747 43.7951 17.763V17.7651Z" fill="#1E1E1E"/>
<path d="M48.1194 14.643C48.1194 17.5134 46.576 19.0567 43.7431 19.0567H43.3313C43.0089 19.0567 42.8654 18.5554 42.8654 17.7838C42.8654 17.0121 43.0089 16.5275 43.3313 16.5275H43.7265C45.4674 16.5275 46.1309 16.0428 46.1309 14.8406C46.1309 14.123 45.898 13.4242 45.4861 12.5797C45.2532 12.0951 45.0743 11.7373 45.0743 11.3421C45.0743 10.6432 45.6296 9.961 46.8506 9.94228C47.6576 11.3587 48.1235 13.0643 48.1235 14.643H48.1194ZM45.7149 7.91639C45.7149 8.66934 45.3031 9.13525 44.5314 9.13525C44.209 9.13525 43.8679 9.04581 43.5809 8.88357C43.4186 8.59654 43.3479 8.27414 43.3479 7.98711C43.3479 7.21544 43.8679 6.78488 44.5855 6.78488C44.8913 6.78488 45.2303 6.87432 45.5173 6.99912C45.6608 7.32152 45.7149 7.64391 45.7149 7.91431V7.91639ZM48.7122 7.91639C48.7122 8.66934 48.2816 9.13525 47.5287 9.13525C47.2063 9.13525 46.8464 9.04581 46.5781 8.88357C46.4159 8.59654 46.3452 8.27414 46.3452 7.98711C46.3452 7.21544 46.8464 6.78488 47.564 6.78488C47.8698 6.78488 48.2088 6.87432 48.5146 6.99912C48.6394 7.32152 48.7122 7.64391 48.7122 7.91431V7.91639Z" fill="#1E1E1E"/>
<defs>
<linearGradient id="paint0_linear_1_16189" x1="54.6547" y1="24.5" x2="103.655" y2="24.5" gradientUnits="userSpaceOnUse">
<stop offset="0.3" stop-color="#87C65B"/>
<stop offset="0.54" stop-color="#5BB578"/>
<stop offset="0.96" stop-color="#0797B1"/>
</linearGradient>
</defs>
</svg>
